 http://www.shotpix.com/images/19053104598140626689.jpg

General
Complete name                            : 2Pac - I Ain't Mad At Cha (Official Music Video).MP4
Format                                   : MPEG-4
Format profile                           : Base Media / Version 2
Codec ID                                 : mp42
File size                                : 89.2 MiB
Duration                                 : 5mn 46s
Overall bit rate mode                    : Variable
Overall bit rate                         : 2 158 Kbps
Encoded date                             : UTC 2011-05-19 21:40:17
Tagged date                              : UTC 2011-05-19 21:40:17

Video
ID                                       : 1
Format                                   : AVC
Format/Info                              : Advanced Video Codec
Format profile                           : High@L3.1
Format settings, CABAC                   : Yes
Format settings, ReFrames                : 1 frame
Format settings, GOP                     : M=1, N=30
Codec ID                                 : avc1
Codec ID/Info                            : Advanced Video Coding
Duration                                 : 5mn 46s
Bit rate                                 : 2 000 Kbps
Maximum bit rate                         : 3 595 Kbps
Width                                    : 1 280 pixels
Height                                   : 720 pixels
Display aspect ratio                     : 16:9
Frame rate mode                          : Variable
Frame rate                               : 29.970 fps
Minimum frame rate                       : 29.412 fps
Maximum frame rate                       : 200.000 fps
Color space                              : YUV
Chroma subsampling                       : 4:2:0
Bit depth                                : 8 bits
Scan type                                : Progressive
Bits/(Pixel*Frame)                       : 0.072
Stream size                              : 82.6 MiB (93%)
Tagged date                              : UTC 2011-05-19 21:40:24

Audio
ID                                       : 2
Format                                   : AAC
Format/Info                              : Advanced Audio Codec
Format profile                           : LC
Codec ID                                 : 40
Duration                                 : 5mn 46s
Bit rate mode                            : Variable
Bit rate                                 : 152 Kbps
Maximum bit rate                         : 183 Kbps
Channel(s)                               : 2 channels
Channel positions                        : Front: L R
Sampling rate                            : 44.1 KHz
Compression mode                         : Lossy
Stream size                              : 6.28 MiB (7%)
Encoded date                             : UTC 2011-05-19 21:40:21
Tagged date                              : UTC 2011-05-19 21:40:24
 
http://www.shotpix.com/images/66177024694256626350.gif
